# xmcd
#
# Track frame offsets: 
#        150
#        22446
#        52886
#        76212
#        102422
#        120960
#        149831
#        175423
#        210042
#        232628
#        268921
#        293085
#
# Disc length: 4126 seconds
#
# Revision: 1
# Processed by: cddbd v1.5.2PL0 Copyright (c) Steve Scherf et al.
# Submitted via: ExactAudioCopy v0.99pb5
#
DISCID=a4101c0c
DTITLE=Various Artist - Summertime Jazz
DYEAR=1998
DGENRE=Jazz
TTITLE0=Diana Krall - Is You Or Is You Ain't My Baby
TTITLE1=New York Voices - Stolen Moments
TTITLE2=Gary Burton and Makoto  Ozone - Monk's Dream
TTITLE3=Groove Collective - She's So Heavy (I Want You)
TTITLE4=David Benoit - Here There And Everywhere
TTITLE5=Dave Valentin - Blackbird
TTITLE6=Yellow Jackets - Dewey (A Tribute To Miles Davis)
TTITLE7=Nelson Rangell - A House Is Not A Home
TTITLE8=Dave Weckl - Softly, As In A Morning Sunrise
TTITLE9=Lee Ritenour - Blue In Green
TTITLE10=Dave Grusin - Satin Doll
TTITLE11=Rob Wasserman With Ricky Lee Jones - The Moon Is Made Of Gold
EXTD=YEAR: 1998
EXTT0=
EXTT1=
EXTT2=
EXTT3=
EXTT4=
EXTT5=
EXTT6=
EXTT7=
EXTT8=
EXTT9=
EXTT10=
EXTT11=
PLAYORDER=
